# xmcd CD database file
#
# Track frame offsets:
#	150
#	18667
#	41237
#	53517
#	74117
#	88275
#	104407
#	132600
#	159307
#	174945
#	190060
#
# Disc length: 2775 seconds
#
# Revision: 0
# Processed by: cddbd v1.4PL0 Copyright (c) Steve Scherf et al.
# Submitted via: CDex 1.50beta10
#
DISCID=9c0ad50b
DTITLE=JAZZY WIND - Fumiaki Miyamoto
DYEAR=1998
DGENRE=Jazz
TTITLE0=Bossa Nova On "G"
TTITLE1=My Favourite
TTITLE2=Invention
TTITLE3=Blue Rondo A La Turk
TTITLE4=Badinerie
TTITLE5=Ave Maria
TTITLE6=Pavane I
TTITLE7=The Summere Knows
TTITLE8=Romance
TTITLE9=Romeo And Juliet
TTITLE10=Pavane II
EXTD=YEAR: 1998
EXTT0=
EXTT1=
EXTT2=
EXTT3=
EXTT4=
EXTT5=
EXTT6=
EXTT7=
EXTT8=
EXTT9=
EXTT10=
PLAYORDER=
